<mxfile host="Electron" agent="Mozilla/5.0 (Windows NT 10.0; Win64; x64) AppleWebKit/537.36 (KHTML, like Gecko) draw.io/27.0.5 Chrome/134.0.6998.205 Electron/35.3.0 Safari/537.36" version="27.0.5">
  <diagram name="第 1 页" id="1ISZXP66ttom4p50y0LG">
    <mxGraphModel dx="856" dy="521" grid="1" gridSize="10" guides="1" tooltips="1" connect="1" arrows="1" fold="1" page="1" pageScale="1" pageWidth="827" pageHeight="1169" math="0" shadow="0">
      <root>
        <mxCell id="0" />
        <mxCell id="1" parent="0" />
        <mxCell id="TqxyXy0SHhE-zwgsd13N-1" value="" style="shape=umlLifeline;perimeter=lifelinePerimeter;whiteSpace=wrap;html=1;container=1;dropTarget=0;collapsible=0;recursiveResize=0;outlineConnect=0;portConstraint=eastwest;newEdgeStyle={&quot;curved&quot;:0,&quot;rounded&quot;:0};participant=umlActor;" parent="1" vertex="1">
          <mxGeometry x="170" y="80" width="20" height="640" as="geometry" />
        </mxCell>
        <mxCell id="TqxyXy0SHhE-zwgsd13N-10" value="" style="html=1;points=[[0,0,0,0,5],[0,1,0,0,-5],[1,0,0,0,5],[1,1,0,0,-5]];perimeter=orthogonalPerimeter;outlineConnect=0;targetShapes=umlLifeline;portConstraint=eastwest;newEdgeStyle={&quot;curved&quot;:0,&quot;rounded&quot;:0};" parent="TqxyXy0SHhE-zwgsd13N-1" vertex="1">
          <mxGeometry x="5" y="90" width="10" height="500" as="geometry" />
        </mxCell>
        <mxCell id="TqxyXy0SHhE-zwgsd13N-2" value="" style="shape=umlLifeline;perimeter=lifelinePerimeter;whiteSpace=wrap;html=1;container=1;dropTarget=0;collapsible=0;recursiveResize=0;outlineConnect=0;portConstraint=eastwest;newEdgeStyle={&quot;curved&quot;:0,&quot;rounded&quot;:0};participant=umlBoundary;" parent="1" vertex="1">
          <mxGeometry x="315" y="80" width="50" height="640" as="geometry" />
        </mxCell>
        <mxCell id="TqxyXy0SHhE-zwgsd13N-3" value="" style="shape=umlLifeline;perimeter=lifelinePerimeter;whiteSpace=wrap;html=1;container=1;dropTarget=0;collapsible=0;recursiveResize=0;outlineConnect=0;portConstraint=eastwest;newEdgeStyle={&quot;curved&quot;:0,&quot;rounded&quot;:0};participant=umlBoundary;" parent="1" vertex="1">
          <mxGeometry x="475" y="80" width="50" height="640" as="geometry" />
        </mxCell>
        <mxCell id="TqxyXy0SHhE-zwgsd13N-6" value="" style="html=1;points=[[0,0,0,0,5],[0,1,0,0,-5],[1,0,0,0,5],[1,1,0,0,-5]];perimeter=orthogonalPerimeter;outlineConnect=0;targetShapes=umlLifeline;portConstraint=eastwest;newEdgeStyle={&quot;curved&quot;:0,&quot;rounded&quot;:0};" parent="TqxyXy0SHhE-zwgsd13N-3" vertex="1">
          <mxGeometry x="20" y="90" width="10" height="20" as="geometry" />
        </mxCell>
        <mxCell id="TqxyXy0SHhE-zwgsd13N-13" value="" style="html=1;points=[[0,0,0,0,5],[0,1,0,0,-5],[1,0,0,0,5],[1,1,0,0,-5]];perimeter=orthogonalPerimeter;outlineConnect=0;targetShapes=umlLifeline;portConstraint=eastwest;newEdgeStyle={&quot;curved&quot;:0,&quot;rounded&quot;:0};" parent="TqxyXy0SHhE-zwgsd13N-3" vertex="1">
          <mxGeometry x="20" y="130" width="10" height="60" as="geometry" />
        </mxCell>
        <mxCell id="TqxyXy0SHhE-zwgsd13N-14" value="輸入帳密(帳號, 密碼)" style="html=1;align=left;spacingLeft=2;endArrow=block;rounded=0;edgeStyle=orthogonalEdgeStyle;curved=0;rounded=0;" parent="TqxyXy0SHhE-zwgsd13N-3" source="TqxyXy0SHhE-zwgsd13N-6" target="TqxyXy0SHhE-zwgsd13N-13" edge="1">
          <mxGeometry relative="1" as="geometry">
            <mxPoint x="35" y="100" as="sourcePoint" />
            <Array as="points">
              <mxPoint x="55" y="100" />
              <mxPoint x="55" y="140" />
            </Array>
          </mxGeometry>
        </mxCell>
        <mxCell id="TqxyXy0SHhE-zwgsd13N-22" value="" style="html=1;points=[[0,0,0,0,5],[0,1,0,0,-5],[1,0,0,0,5],[1,1,0,0,-5]];perimeter=orthogonalPerimeter;outlineConnect=0;targetShapes=umlLifeline;portConstraint=eastwest;newEdgeStyle={&quot;curved&quot;:0,&quot;rounded&quot;:0};" parent="TqxyXy0SHhE-zwgsd13N-3" vertex="1">
          <mxGeometry x="20" y="250" width="10" height="60" as="geometry" />
        </mxCell>
        <mxCell id="TqxyXy0SHhE-zwgsd13N-4" value="API Server" style="shape=umlLifeline;perimeter=lifelinePerimeter;whiteSpace=wrap;html=1;container=1;dropTarget=0;collapsible=0;recursiveResize=0;outlineConnect=0;portConstraint=eastwest;newEdgeStyle={&quot;curved&quot;:0,&quot;rounded&quot;:0};" parent="1" vertex="1">
          <mxGeometry x="610" y="80" width="100" height="640" as="geometry" />
        </mxCell>
        <mxCell id="TqxyXy0SHhE-zwgsd13N-28" value="" style="html=1;points=[[0,0,0,0,5],[0,1,0,0,-5],[1,0,0,0,5],[1,1,0,0,-5]];perimeter=orthogonalPerimeter;outlineConnect=0;targetShapes=umlLifeline;portConstraint=eastwest;newEdgeStyle={&quot;curved&quot;:0,&quot;rounded&quot;:0};" parent="TqxyXy0SHhE-zwgsd13N-4" vertex="1">
          <mxGeometry x="45" y="370" width="10" height="60" as="geometry" />
        </mxCell>
        <mxCell id="TqxyXy0SHhE-zwgsd13N-31" value="" style="html=1;points=[[0,0,0,0,5],[0,1,0,0,-5],[1,0,0,0,5],[1,1,0,0,-5]];perimeter=orthogonalPerimeter;outlineConnect=0;targetShapes=umlLifeline;portConstraint=eastwest;newEdgeStyle={&quot;curved&quot;:0,&quot;rounded&quot;:0};" parent="TqxyXy0SHhE-zwgsd13N-4" vertex="1">
          <mxGeometry x="45" y="450" width="10" height="60" as="geometry" />
        </mxCell>
        <mxCell id="TqxyXy0SHhE-zwgsd13N-36" value="顯示登入成功()" style="html=1;verticalAlign=bottom;endArrow=open;dashed=1;endSize=8;curved=0;rounded=0;" parent="TqxyXy0SHhE-zwgsd13N-4" source="TqxyXy0SHhE-zwgsd13N-34" edge="1">
          <mxGeometry relative="1" as="geometry">
            <mxPoint x="-280" y="540" as="sourcePoint" />
            <mxPoint x="-425.0000000000001" y="540" as="targetPoint" />
          </mxGeometry>
        </mxCell>
        <mxCell id="TqxyXy0SHhE-zwgsd13N-37" value="顯示&lt;span style=&quot;background-color: light-dark(#ffffff, var(--ge-dark-color, #121212)); color: light-dark(rgb(0, 0, 0), rgb(255, 255, 255));&quot;&gt;登入失敗()&lt;/span&gt;" style="html=1;verticalAlign=bottom;endArrow=open;dashed=1;endSize=8;curved=0;rounded=0;" parent="TqxyXy0SHhE-zwgsd13N-4" source="TqxyXy0SHhE-zwgsd13N-41" edge="1">
          <mxGeometry relative="1" as="geometry">
            <mxPoint x="-290" y="580" as="sourcePoint" />
            <mxPoint x="-425.0000000000001" y="580" as="targetPoint" />
            <Array as="points" />
          </mxGeometry>
        </mxCell>
        <mxCell id="TqxyXy0SHhE-zwgsd13N-41" value="" style="html=1;points=[[0,0,0,0,5],[0,1,0,0,-5],[1,0,0,0,5],[1,1,0,0,-5]];perimeter=orthogonalPerimeter;outlineConnect=0;targetShapes=umlLifeline;portConstraint=eastwest;newEdgeStyle={&quot;curved&quot;:0,&quot;rounded&quot;:0};" parent="TqxyXy0SHhE-zwgsd13N-4" vertex="1">
          <mxGeometry x="-275" y="570" width="10" height="20" as="geometry" />
        </mxCell>
        <mxCell id="TqxyXy0SHhE-zwgsd13N-34" value="" style="html=1;points=[[0,0,0,0,5],[0,1,0,0,-5],[1,0,0,0,5],[1,1,0,0,-5]];perimeter=orthogonalPerimeter;outlineConnect=0;targetShapes=umlLifeline;portConstraint=eastwest;newEdgeStyle={&quot;curved&quot;:0,&quot;rounded&quot;:0};" parent="TqxyXy0SHhE-zwgsd13N-4" vertex="1">
          <mxGeometry x="-275" y="530" width="10" height="20" as="geometry" />
        </mxCell>
        <mxCell id="TqxyXy0SHhE-zwgsd13N-35" value="返回首頁()" style="html=1;verticalAlign=bottom;endArrow=open;dashed=1;endSize=8;curved=0;rounded=0;" parent="TqxyXy0SHhE-zwgsd13N-4" source="TqxyXy0SHhE-zwgsd13N-26" target="TqxyXy0SHhE-zwgsd13N-34" edge="1">
          <mxGeometry relative="1" as="geometry">
            <mxPoint x="-117" y="540" as="sourcePoint" />
            <mxPoint x="-197" y="540" as="targetPoint" />
            <Array as="points">
              <mxPoint x="-190" y="540" />
            </Array>
          </mxGeometry>
        </mxCell>
        <mxCell id="TqxyXy0SHhE-zwgsd13N-42" value="返回首頁()" style="html=1;verticalAlign=bottom;endArrow=open;dashed=1;endSize=8;curved=0;rounded=0;" parent="TqxyXy0SHhE-zwgsd13N-4" source="TqxyXy0SHhE-zwgsd13N-40" target="TqxyXy0SHhE-zwgsd13N-41" edge="1">
          <mxGeometry relative="1" as="geometry">
            <mxPoint x="-117" y="580" as="sourcePoint" />
            <mxPoint x="-197" y="580" as="targetPoint" />
          </mxGeometry>
        </mxCell>
        <mxCell id="TqxyXy0SHhE-zwgsd13N-40" value="" style="html=1;points=[[0,0,0,0,5],[0,1,0,0,-5],[1,0,0,0,5],[1,1,0,0,-5]];perimeter=orthogonalPerimeter;outlineConnect=0;targetShapes=umlLifeline;portConstraint=eastwest;newEdgeStyle={&quot;curved&quot;:0,&quot;rounded&quot;:0};" parent="TqxyXy0SHhE-zwgsd13N-4" vertex="1">
          <mxGeometry x="-115" y="570" width="10" height="20" as="geometry" />
        </mxCell>
        <mxCell id="TqxyXy0SHhE-zwgsd13N-26" value="" style="html=1;points=[[0,0,0,0,5],[0,1,0,0,-5],[1,0,0,0,5],[1,1,0,0,-5]];perimeter=orthogonalPerimeter;outlineConnect=0;targetShapes=umlLifeline;portConstraint=eastwest;newEdgeStyle={&quot;curved&quot;:0,&quot;rounded&quot;:0};" parent="TqxyXy0SHhE-zwgsd13N-4" vertex="1">
          <mxGeometry x="-115" y="330" width="10" height="220" as="geometry" />
        </mxCell>
        <mxCell id="TqxyXy0SHhE-zwgsd13N-38" value="回傳驗證失敗訊息()" style="html=1;verticalAlign=bottom;endArrow=open;dashed=1;endSize=8;curved=0;rounded=0;" parent="TqxyXy0SHhE-zwgsd13N-4" edge="1">
          <mxGeometry relative="1" as="geometry">
            <mxPoint x="205" y="580" as="sourcePoint" />
            <mxPoint x="-105" y="580" as="targetPoint" />
            <Array as="points">
              <mxPoint x="50" y="580" />
            </Array>
          </mxGeometry>
        </mxCell>
        <mxCell id="TqxyXy0SHhE-zwgsd13N-29" value="查詢使用者資訊與權限()" style="html=1;verticalAlign=bottom;endArrow=block;curved=0;rounded=0;" parent="TqxyXy0SHhE-zwgsd13N-4" target="TqxyXy0SHhE-zwgsd13N-28" edge="1">
          <mxGeometry relative="1" as="geometry">
            <mxPoint x="-105" y="380" as="sourcePoint" />
            <Array as="points">
              <mxPoint x="-30" y="380" />
            </Array>
          </mxGeometry>
        </mxCell>
        <mxCell id="TqxyXy0SHhE-zwgsd13N-30" value="回傳使用者資訊與權限()" style="html=1;verticalAlign=bottom;endArrow=open;dashed=1;endSize=8;curved=0;rounded=0;" parent="TqxyXy0SHhE-zwgsd13N-4" source="TqxyXy0SHhE-zwgsd13N-28" edge="1">
          <mxGeometry relative="1" as="geometry">
            <mxPoint x="-105" y="420" as="targetPoint" />
            <Array as="points">
              <mxPoint x="-30" y="420" />
            </Array>
          </mxGeometry>
        </mxCell>
        <mxCell id="TqxyXy0SHhE-zwgsd13N-32" value="建立使用者資訊()" style="html=1;verticalAlign=bottom;endArrow=block;curved=0;rounded=0;" parent="TqxyXy0SHhE-zwgsd13N-4" target="TqxyXy0SHhE-zwgsd13N-31" edge="1">
          <mxGeometry relative="1" as="geometry">
            <mxPoint x="-105" y="460" as="sourcePoint" />
            <Array as="points">
              <mxPoint x="-30" y="460" />
            </Array>
          </mxGeometry>
        </mxCell>
        <mxCell id="TqxyXy0SHhE-zwgsd13N-33" value="回傳使用者資訊與權限()" style="html=1;verticalAlign=bottom;endArrow=open;dashed=1;endSize=8;curved=0;rounded=0;" parent="TqxyXy0SHhE-zwgsd13N-4" source="TqxyXy0SHhE-zwgsd13N-31" edge="1">
          <mxGeometry relative="1" as="geometry">
            <mxPoint x="-105" y="500" as="targetPoint" />
            <Array as="points">
              <mxPoint x="-30" y="500" />
            </Array>
          </mxGeometry>
        </mxCell>
        <mxCell id="TqxyXy0SHhE-zwgsd13N-5" value="第三方登入" style="shape=umlLifeline;perimeter=lifelinePerimeter;whiteSpace=wrap;html=1;container=1;dropTarget=0;collapsible=0;recursiveResize=0;outlineConnect=0;portConstraint=eastwest;newEdgeStyle={&quot;curved&quot;:0,&quot;rounded&quot;:0};" parent="1" vertex="1">
          <mxGeometry x="770" y="80" width="100" height="640" as="geometry" />
        </mxCell>
        <mxCell id="TqxyXy0SHhE-zwgsd13N-16" value="驗證帳密(帳號, 密碼)" style="html=1;verticalAlign=bottom;endArrow=block;curved=0;rounded=0;entryX=0;entryY=0;entryDx=0;entryDy=5;" parent="TqxyXy0SHhE-zwgsd13N-5" source="TqxyXy0SHhE-zwgsd13N-13" edge="1">
          <mxGeometry x="-0.0022" relative="1" as="geometry">
            <mxPoint x="-25" y="180" as="sourcePoint" />
            <mxPoint x="45" y="180" as="targetPoint" />
            <mxPoint as="offset" />
          </mxGeometry>
        </mxCell>
        <mxCell id="TqxyXy0SHhE-zwgsd13N-15" value="" style="html=1;points=[[0,0,0,0,5],[0,1,0,0,-5],[1,0,0,0,5],[1,1,0,0,-5]];perimeter=orthogonalPerimeter;outlineConnect=0;targetShapes=umlLifeline;portConstraint=eastwest;newEdgeStyle={&quot;curved&quot;:0,&quot;rounded&quot;:0};" parent="TqxyXy0SHhE-zwgsd13N-5" vertex="1">
          <mxGeometry x="45" y="170" width="10" height="60" as="geometry" />
        </mxCell>
        <mxCell id="TqxyXy0SHhE-zwgsd13N-19" value="產生Token()" style="html=1;align=left;spacingLeft=2;endArrow=block;rounded=0;edgeStyle=orthogonalEdgeStyle;curved=0;rounded=0;" parent="TqxyXy0SHhE-zwgsd13N-5" target="TqxyXy0SHhE-zwgsd13N-18" edge="1">
          <mxGeometry relative="1" as="geometry">
            <mxPoint x="55" y="220" as="sourcePoint" />
            <Array as="points">
              <mxPoint x="80" y="220" />
              <mxPoint x="80" y="260" />
            </Array>
          </mxGeometry>
        </mxCell>
        <mxCell id="TqxyXy0SHhE-zwgsd13N-18" value="" style="html=1;points=[[0,0,0,0,5],[0,1,0,0,-5],[1,0,0,0,5],[1,1,0,0,-5]];perimeter=orthogonalPerimeter;outlineConnect=0;targetShapes=umlLifeline;portConstraint=eastwest;newEdgeStyle={&quot;curved&quot;:0,&quot;rounded&quot;:0};" parent="TqxyXy0SHhE-zwgsd13N-5" vertex="1">
          <mxGeometry x="45" y="250" width="10" height="340" as="geometry" />
        </mxCell>
        <mxCell id="TqxyXy0SHhE-zwgsd13N-20" value="回傳Token()" style="html=1;verticalAlign=bottom;endArrow=open;dashed=1;endSize=8;curved=0;rounded=0;" parent="TqxyXy0SHhE-zwgsd13N-5" edge="1">
          <mxGeometry relative="1" as="geometry">
            <mxPoint x="45" y="260" as="sourcePoint" />
            <mxPoint x="-265" y="260" as="targetPoint" />
          </mxGeometry>
        </mxCell>
        <mxCell id="TqxyXy0SHhE-zwgsd13N-7" value="導向登入介面()" style="html=1;verticalAlign=bottom;endArrow=block;curved=0;rounded=0;" parent="1" edge="1">
          <mxGeometry relative="1" as="geometry">
            <mxPoint x="185" y="180" as="sourcePoint" />
            <mxPoint x="495" y="180" as="targetPoint" />
          </mxGeometry>
        </mxCell>
        <mxCell id="TqxyXy0SHhE-zwgsd13N-43" value="alt" style="shape=umlFrame;whiteSpace=wrap;html=1;pointerEvents=0;" parent="1" vertex="1">
          <mxGeometry x="80" y="280" width="880" height="400" as="geometry" />
        </mxCell>
        <mxCell id="TqxyXy0SHhE-zwgsd13N-27" value="儲存Token()" style="html=1;align=left;spacingLeft=2;endArrow=block;rounded=0;edgeStyle=orthogonalEdgeStyle;curved=0;rounded=0;" parent="1" source="TqxyXy0SHhE-zwgsd13N-22" target="TqxyXy0SHhE-zwgsd13N-26" edge="1">
          <mxGeometry relative="1" as="geometry">
            <mxPoint x="520" y="380" as="sourcePoint" />
            <Array as="points">
              <mxPoint x="530" y="380" />
              <mxPoint x="530" y="420" />
            </Array>
            <mxPoint x="500.0000000000002" y="450" as="targetPoint" />
          </mxGeometry>
        </mxCell>
        <mxCell id="TqxyXy0SHhE-zwgsd13N-44" value="" style="endArrow=none;dashed=1;html=1;rounded=0;exitX=0;exitY=0.9;exitDx=0;exitDy=0;exitPerimeter=0;entryX=1;entryY=0.9;entryDx=0;entryDy=0;entryPerimeter=0;" parent="1" source="TqxyXy0SHhE-zwgsd13N-43" target="TqxyXy0SHhE-zwgsd13N-43" edge="1">
          <mxGeometry width="50" height="50" relative="1" as="geometry">
            <mxPoint x="350" y="450" as="sourcePoint" />
            <mxPoint x="400" y="400" as="targetPoint" />
          </mxGeometry>
        </mxCell>
        <mxCell id="TqxyXy0SHhE-zwgsd13N-45" value="opt" style="shape=umlFrame;whiteSpace=wrap;html=1;pointerEvents=0;" parent="1" vertex="1">
          <mxGeometry x="400" y="520" width="320" height="80" as="geometry" />
        </mxCell>
        <mxCell id="TqxyXy0SHhE-zwgsd13N-46" value="[驗證成功]" style="text;html=1;align=center;verticalAlign=middle;whiteSpace=wrap;rounded=0;" parent="1" vertex="1">
          <mxGeometry x="80" y="320" width="80" height="30" as="geometry" />
        </mxCell>
        <mxCell id="TqxyXy0SHhE-zwgsd13N-47" value="[驗證失敗]" style="text;html=1;align=center;verticalAlign=middle;whiteSpace=wrap;rounded=0;" parent="1" vertex="1">
          <mxGeometry x="80" y="640" width="80" height="30" as="geometry" />
        </mxCell>
        <mxCell id="TqxyXy0SHhE-zwgsd13N-48" value="[查無資料]" style="text;html=1;align=center;verticalAlign=middle;whiteSpace=wrap;rounded=0;" parent="1" vertex="1">
          <mxGeometry x="400" y="560" width="80" height="30" as="geometry" />
        </mxCell>
        <mxCell id="TqxyXy0SHhE-zwgsd13N-49" value="使用者登入" style="shape=umlFrame;whiteSpace=wrap;html=1;pointerEvents=0;width=80;height=30;" parent="1" vertex="1">
          <mxGeometry x="40" y="40" width="960" height="680" as="geometry" />
        </mxCell>
        <mxCell id="TqxyXy0SHhE-zwgsd13N-50" value="使用者" style="text;html=1;align=center;verticalAlign=middle;whiteSpace=wrap;rounded=0;" parent="1" vertex="1">
          <mxGeometry x="150" y="120" width="60" height="30" as="geometry" />
        </mxCell>
        <mxCell id="TqxyXy0SHhE-zwgsd13N-51" value="首頁" style="text;html=1;align=center;verticalAlign=middle;whiteSpace=wrap;rounded=0;" parent="1" vertex="1">
          <mxGeometry x="310" y="120" width="60" height="30" as="geometry" />
        </mxCell>
        <mxCell id="TqxyXy0SHhE-zwgsd13N-52" value="登入介面" style="text;html=1;align=center;verticalAlign=middle;whiteSpace=wrap;rounded=0;" parent="1" vertex="1">
          <mxGeometry x="470" y="120" width="60" height="30" as="geometry" />
        </mxCell>
      </root>
    </mxGraphModel>
  </diagram>
</mxfile>
